<svg width="228" height="66" viewBox="0 0 228 66" fill="none" xmlns="http://www.w3.org/2000/svg">
<path d="M64.9111 49.7819C62.5508 49.7819 60.4708 49.3688 58.6711 48.5428C56.9009 47.7462 55.4995 46.6103 54.4669 45.1351L58.6269 40.9752C59.394 41.8898 60.2495 42.5831 61.1937 43.0551C62.1673 43.5272 63.3326 43.7632 64.6898 43.7632C66.3715 43.7632 67.6844 43.3502 68.6285 42.5241C69.6021 41.698 70.0889 40.5326 70.0889 39.028V33.5403L71.2395 28.8493L70.2216 24.1583V18.6265H76.8599V38.8509C76.8599 41.0637 76.3436 42.9814 75.311 44.6041C74.2783 46.2267 72.8622 47.4954 71.0625 48.41C69.2628 49.3246 67.2123 49.7819 64.9111 49.7819ZM64.6013 39.4705C62.6246 39.4705 60.8691 38.9984 59.3349 38.0543C57.8008 37.1102 56.5911 35.8268 55.706 34.2042C54.821 32.5815 54.3784 30.7818 54.3784 28.8051C54.3784 26.7989 54.821 24.9992 55.706 23.406C56.5911 21.7833 57.8008 20.5147 59.3349 19.6001C60.8691 18.656 62.6246 18.1839 64.6013 18.1839C66.0764 18.1839 67.3893 18.4642 68.54 19.0247C69.7201 19.5558 70.6642 20.3229 71.3723 21.326C72.1099 22.2996 72.5229 23.4355 72.6114 24.7336V32.9208C72.5229 34.1894 72.1099 35.3253 71.3723 36.3284C70.6642 37.302 69.7201 38.0691 68.54 38.6297C67.3598 39.1902 66.0469 39.4705 64.6013 39.4705ZM65.8847 33.4518C66.8288 33.4518 67.6401 33.2453 68.3187 32.8323C69.0268 32.4192 69.5578 31.8734 69.9119 31.1948C70.2954 30.4868 70.4872 29.6902 70.4872 28.8051C70.4872 27.92 70.2954 27.1234 69.9119 26.4153C69.5578 25.7072 69.0268 25.1467 68.3187 24.7336C67.6401 24.3206 66.8288 24.1141 65.8847 24.1141C64.9701 24.1141 64.1587 24.3206 63.4507 24.7336C62.7426 25.1467 62.1968 25.7072 61.8132 26.4153C61.4297 27.1234 61.2379 27.92 61.2379 28.8051C61.2379 29.6312 61.4297 30.413 61.8132 31.1506C62.1968 31.8587 62.7278 32.4192 63.4064 32.8323C64.1145 33.2453 64.9406 33.4518 65.8847 33.4518Z" fill="black"/>
<path d="M79.6472 40.1343V18.6265H86.4182V40.1343H79.6472ZM86.4182 28.3183L83.5859 26.1055C84.1465 23.5978 85.0906 21.6505 86.4182 20.2639C87.7459 18.8772 89.5898 18.1839 91.9501 18.1839C92.9827 18.1839 93.8826 18.3462 94.6496 18.6707C95.4462 18.9657 96.1396 19.4378 96.7296 20.0869L92.7024 25.1762C92.4074 24.8516 92.0386 24.6009 91.5961 24.4238C91.1535 24.2468 90.652 24.1583 90.0914 24.1583C88.9703 24.1583 88.0704 24.5124 87.3918 25.2204C86.7428 25.899 86.4182 26.9316 86.4182 28.3183Z" fill="black"/>
<path d="M104.921 40.5769C102.944 40.5769 101.174 40.0901 99.61 39.1165C98.0758 38.1429 96.8514 36.8152 95.9368 35.1335C95.0517 33.4518 94.6092 31.5341 94.6092 29.3804C94.6092 27.2267 95.0517 25.3089 95.9368 23.6273C96.8514 21.9456 98.0758 20.6179 99.61 19.6443C101.174 18.6707 102.944 18.1839 104.921 18.1839C106.366 18.1839 107.664 18.4642 108.815 19.0247C109.995 19.5853 110.954 20.3671 111.692 21.3703C112.429 22.3439 112.842 23.465 112.931 24.7336V34.0272C112.842 35.2958 112.429 36.4317 111.692 37.4348C110.983 38.4084 110.039 39.1755 108.859 39.736C107.679 40.2966 106.366 40.5769 104.921 40.5769ZM106.292 34.4697C107.738 34.4697 108.904 33.9976 109.789 33.0535C110.674 32.0799 111.116 30.8556 111.116 29.3804C111.116 28.3773 110.91 27.4922 110.497 26.7251C110.113 25.958 109.553 25.3679 108.815 24.9549C108.107 24.5124 107.281 24.2911 106.337 24.2911C105.393 24.2911 104.552 24.5124 103.814 24.9549C103.106 25.3679 102.531 25.958 102.088 26.7251C101.675 27.4922 101.469 28.3773 101.469 29.3804C101.469 30.354 101.675 31.2243 102.088 31.9914C102.501 32.7585 103.077 33.3633 103.814 33.8059C104.552 34.2484 105.378 34.4697 106.292 34.4697ZM110.851 40.1343V34.3369L111.869 29.1149L110.851 23.8928V18.6265H117.489V40.1343H110.851Z" fill="black"/>
<path d="M120.265 40.1343V18.6265H127.036V40.1343H120.265ZM134.028 40.1343V27.5659C134.028 26.4743 133.689 25.6335 133.01 25.0434C132.361 24.4238 131.55 24.1141 130.576 24.1141C129.898 24.1141 129.293 24.2616 128.762 24.5566C128.231 24.8221 127.803 25.2057 127.478 25.7072C127.183 26.2088 127.036 26.8284 127.036 27.5659L124.425 26.4153C124.425 24.7041 124.794 23.2437 125.531 22.0341C126.269 20.7949 127.272 19.8508 128.541 19.2018C129.809 18.5232 131.24 18.1839 132.833 18.1839C134.338 18.1839 135.68 18.5232 136.86 19.2018C138.07 19.8803 139.029 20.8244 139.737 22.0341C140.445 23.2437 140.799 24.6894 140.799 26.3711V40.1343H134.028ZM147.791 40.1343V27.5659C147.791 26.4743 147.452 25.6335 146.774 25.0434C146.125 24.4238 145.313 24.1141 144.34 24.1141C143.661 24.1141 143.056 24.2616 142.525 24.5566C141.994 24.8221 141.566 25.2057 141.242 25.7072C140.947 26.2088 140.799 26.8284 140.799 27.5659L136.905 27.0349C136.964 25.2057 137.392 23.642 138.188 22.3439C139.014 21.0162 140.091 19.9984 141.419 19.2903C142.776 18.5527 144.295 18.1839 145.977 18.1839C147.629 18.1839 149.09 18.5379 150.358 19.246C151.656 19.9246 152.674 20.913 153.412 22.2111C154.179 23.4797 154.562 25.0139 154.562 26.8136V40.1343H147.791Z" fill="black"/>
<path d="M167.31 40.6211C165.097 40.6211 163.091 40.1343 161.291 39.1607C159.492 38.1871 158.075 36.8447 157.043 35.1335C156.01 33.4223 155.494 31.5046 155.494 29.3804C155.494 27.2267 156.01 25.3089 157.043 23.6273C158.105 21.9161 159.536 20.5737 161.336 19.6001C163.135 18.6265 165.156 18.1397 167.398 18.1397C169.08 18.1397 170.614 18.4347 172.001 19.0247C173.417 19.5853 174.671 20.4409 175.763 21.5915L171.426 25.9285C170.924 25.3679 170.334 24.9549 169.655 24.6894C169.006 24.4238 168.254 24.2911 167.398 24.2911C166.425 24.2911 165.554 24.5124 164.787 24.9549C164.05 25.3679 163.46 25.958 163.017 26.7251C162.604 27.4627 162.398 28.333 162.398 29.3361C162.398 30.3392 162.604 31.2243 163.017 31.9914C163.46 32.7585 164.065 33.3633 164.832 33.8059C165.599 34.2484 166.454 34.4697 167.398 34.4697C168.284 34.4697 169.065 34.3222 169.744 34.0272C170.452 33.7026 171.057 33.2601 171.558 32.6995L175.851 37.0365C174.73 38.2166 173.461 39.1165 172.045 39.736C170.629 40.3261 169.051 40.6211 167.31 40.6211Z" fill="black"/>
<path d="M184.706 40.6654C183.438 40.6654 182.184 40.5031 180.945 40.1786C179.735 39.854 178.599 39.3967 177.537 38.8067C176.504 38.1871 175.619 37.479 174.882 36.6824L178.732 32.788C179.44 33.5551 180.281 34.1599 181.254 34.6025C182.228 35.0155 183.29 35.222 184.441 35.222C185.237 35.222 185.842 35.104 186.255 34.868C186.698 34.632 186.919 34.3074 186.919 33.8944C186.919 33.3633 186.653 32.965 186.122 32.6995C185.621 32.4045 184.972 32.1537 184.175 31.9472C183.379 31.7111 182.538 31.4604 181.653 31.1948C180.768 30.9293 179.927 30.5605 179.13 30.0885C178.334 29.6164 177.684 28.9673 177.183 28.1413C176.681 27.2857 176.431 26.2088 176.431 24.9106C176.431 23.524 176.785 22.3291 177.493 21.326C178.201 20.2934 179.204 19.482 180.502 18.892C181.8 18.3019 183.32 18.0069 185.06 18.0069C186.889 18.0069 188.571 18.3314 190.105 18.9805C191.669 19.6001 192.938 20.5294 193.911 21.7686L190.061 25.663C189.383 24.8664 188.615 24.3058 187.76 23.9813C186.934 23.6568 186.122 23.4945 185.326 23.4945C184.559 23.4945 183.983 23.6125 183.6 23.8485C183.216 24.0551 183.025 24.3648 183.025 24.7779C183.025 25.2204 183.275 25.5745 183.777 25.84C184.278 26.1055 184.928 26.3416 185.724 26.5481C186.521 26.7546 187.362 27.0054 188.247 27.3004C189.132 27.5954 189.973 27.9937 190.769 28.4953C191.566 28.9968 192.215 29.6754 192.716 30.531C193.218 31.3571 193.469 32.4487 193.469 33.8059C193.469 35.9006 192.672 37.5675 191.079 38.8067C189.515 40.0458 187.391 40.6654 184.706 40.6654Z" fill="black"/>
<path d="M198.204 40.1343V9.73122H204.975V40.1343H198.204ZM193.336 24.3796V18.6265H209.843V24.3796H193.336Z" fill="black"/>
<path d="M210.835 40.1343V18.6265H217.606V40.1343H210.835ZM217.606 28.3183L214.774 26.1055C215.335 23.5978 216.279 21.6505 217.606 20.2639C218.934 18.8772 220.778 18.1839 223.138 18.1839C224.171 18.1839 225.071 18.3462 225.838 18.6707C226.634 18.9657 227.328 19.4378 227.918 20.0869L223.89 25.1762C223.595 24.8516 223.227 24.6009 222.784 24.4238C222.342 24.2468 221.84 24.1583 221.279 24.1583C220.158 24.1583 219.258 24.5124 218.58 25.2204C217.931 25.899 217.606 26.9316 217.606 28.3183Z" fill="black"/>
<path fill-rule="evenodd" clip-rule="evenodd" d="M3.33755 27.7089C4.89417 27.7089 6.15606 28.9708 6.15606 30.5274V34.7552C6.15606 38.4928 7.6408 42.0773 10.2837 44.7201C12.9265 47.363 16.511 48.8477 20.2486 48.8477C23.9862 48.8477 27.5707 47.363 30.2135 44.7201C32.8564 42.0773 34.3411 38.4928 34.3411 34.7552V30.5274C34.3411 28.9708 35.603 27.7089 37.1596 27.7089C38.7163 27.7089 39.9781 28.9708 39.9781 30.5274V34.7552C39.9781 39.9878 37.8995 45.0061 34.1995 48.7061C31.1704 51.7352 27.2576 53.6777 23.0671 54.2825V59.4171H30.818C32.3746 59.4171 33.6365 60.679 33.6365 62.2356C33.6365 63.7923 32.3746 65.0541 30.818 65.0541H9.67919C8.12257 65.0541 6.86069 63.7923 6.86069 62.2356C6.86069 60.679 8.12257 59.4171 9.67919 59.4171H17.4301V54.2825C13.2396 53.6777 9.32684 51.7352 6.2977 48.7061C2.59769 45.0061 0.519043 39.9878 0.519043 34.7552V30.5274C0.519043 28.9708 1.78093 27.7089 3.33755 27.7089Z" fill="black"/>
<path fill-rule="evenodd" clip-rule="evenodd" d="M8.34048 3.77296C8.34048 1.98077 9.79334 0.527916 11.5855 0.527916H28.9117C30.7039 0.527916 32.1568 1.98077 32.1568 3.77296V32.467C32.1568 33.3276 31.8149 34.153 31.2063 34.7616L22.5432 43.4247C21.2759 44.6919 19.2213 44.6919 17.954 43.4247L9.29093 34.7616C8.68237 34.153 8.34048 33.3276 8.34048 32.467V3.77296ZM15.4243 4.30122C13.5959 4.30122 12.1138 5.78337 12.1138 7.6117V30.8769C12.1138 31.7549 12.4626 32.597 13.0834 33.2178L17.9078 38.0421C19.2006 39.335 21.2967 39.335 22.5895 38.0421L27.4138 33.2178C28.0347 32.597 28.3835 31.7549 28.3835 30.8769V7.61171C28.3835 5.78337 26.9013 4.30122 25.073 4.30122H15.4243Z" fill="black"/>
<path fill-rule="evenodd" clip-rule="evenodd" d="M30.2701 14.4363H10.2569V11.8559H30.2701V14.4363Z" fill="black"/>
<path fill-rule="evenodd" clip-rule="evenodd" d="M15.9134 16.2059C15.9134 13.8034 17.861 11.8559 20.2634 11.8559V11.8559C22.6658 11.8559 24.6134 13.8034 24.6134 16.2059V28.6971C24.6134 31.0995 22.6658 33.0471 20.2634 33.0471V33.0471C17.861 33.0471 15.9134 31.0995 15.9134 28.6971V16.2059ZM20.2634 14.4217C19.2781 14.4217 18.4793 15.2205 18.4793 16.2059V28.6971C18.4793 29.6825 19.2781 30.4812 20.2634 30.4812V30.4812C21.2488 30.4812 22.0475 29.6825 22.0475 28.6971V16.2059C22.0475 15.2205 21.2488 14.4217 20.2634 14.4217V14.4217Z" fill="black"/>
<path fill-rule="evenodd" clip-rule="evenodd" d="M22.0485 16.2059C22.0485 13.8034 23.9961 11.8559 26.3985 11.8559V11.8559C28.8009 11.8559 30.7485 13.8034 30.7485 16.2059V28.6971C30.7485 31.0995 28.8009 33.0471 26.3985 33.0471V33.0471C23.9961 33.0471 22.0485 31.0995 22.0485 28.6971V16.2059ZM26.3985 14.4217C25.4131 14.4217 24.6144 15.2205 24.6144 16.2059V28.6971C24.6144 29.6825 25.4131 30.4812 26.3985 30.4812V30.4812C27.3838 30.4812 28.1826 29.6825 28.1826 28.6971V16.2059C28.1826 15.2205 27.3838 14.4217 26.3985 14.4217V14.4217Z" fill="black"/>
<path fill-rule="evenodd" clip-rule="evenodd" d="M9.72592 16.2059C9.72592 13.8034 11.6735 11.8559 14.0759 11.8559V11.8559C16.4783 11.8559 18.4259 13.8034 18.4259 16.2059V28.6971C18.4259 31.0995 16.4783 33.0471 14.0759 33.0471V33.0471C11.6735 33.0471 9.72592 31.0995 9.72592 28.6971V16.2059ZM14.0759 14.4217C13.0905 14.4217 12.2918 15.2205 12.2918 16.2059V28.6971C12.2918 29.6825 13.0905 30.4812 14.0759 30.4812V30.4812C15.0612 30.4812 15.86 29.6825 15.86 28.6971V16.2059C15.86 15.2205 15.0612 14.4217 14.0759 14.4217V14.4217Z" fill="black"/>
</svg>
